<?xml version="1.0" encoding="UTF-8" standalone="no"?>
<!-- Created with Inkscape (http://www.inkscape.org/) -->

<svg
   version="1.1"
   id="svg1"
   width="838.83051"
   height="373.80072"
   viewBox="0 0 838.83051 373.80072"
   xmlns="http://www.w3.org/2000/svg"
   xmlns:svg="http://www.w3.org/2000/svg">
  <defs
     id="defs1" />
  <g
     id="g1"
     transform="translate(-4.0458555,-12.09963)">
    <path
       style="fill:#ed1c24;fill-opacity:1;stroke:none"
       d="m 173.95414,384.43341 c -15.16744,-1.66309 -26.10903,-3.94093 -39.5,-8.22318 C 74.140765,356.92281 26.713165,306.80421 11.005668,245.75739 8.2668266,235.11295 7.5726492,231.17787 4.9853249,211.62994 3.5346519,200.66972 3.6874749,195.53472 5.9815409,178.15612 11.744393,134.49988 27.699967,100.1285 55.936285,70.543965 c 25.088571,-26.28649 55.928965,-44.50689 90.017855,-53.18226 20.0125,-5.09303 3.77691,-4.78344 271,-5.16765 168.48664,-0.24225 251.66451,-0.0204 258.32813,0.68895 34.1858,3.63921 66.51145,16.46631 94.15087,37.35989 10.34698,7.82163 27.48418,24.97754 35.13954,35.17789 43.28565,57.675815 50.42406,132.648405 18.66186,196.000005 -9.5219,18.992 -18.15042,31.20451 -32.75758,46.36399 -32.28014,33.5007 -73.0058,52.7243 -121.02282,57.12598 -17.33884,1.58943 -480.72209,1.14303 -495.5,-0.47735 z m 509.92264,-27.33318 c 40.81791,-7.86818 75.54885,-29.10848 100.07151,-61.20044 15.34776,-20.08507 24.30894,-40.02367 30.15706,-67.09939 1.90182,-8.80509 2.2419,-13.41348 2.2419,-30.37961 0,-16.97555 -0.34072,-21.58784 -2.25313,-30.5 -6.71108,-31.27476 -20.20849,-57.46434 -40.63998,-78.855435 -24.60954,-25.76536 -51.25138,-40.91703 -85.05678,-48.37322 l -9.94322,-2.1931 -248.5,-0.34261 c -182.55319,-0.25169 -251.02111,-0.0383 -258,0.80396 -19.73222,2.38152 -42.51371,9.89692 -59.70625,19.69653 -30.799299,17.55535 -57.587539,48.384155 -70.303642,80.907775 -8.27591,21.16706 -11.613278,41.75063 -10.677743,65.8561 0.937567,24.15782 5.813441,43.12685 16.707857,65 24.773989,49.73972 75.361038,84.02996 130.479778,88.44521 5.5,0.44057 118.9,0.71893 252,0.61857 l 242,-0.18247 z M 433.62081,279.25412 c -0.36667,-0.36666 -0.66667,-37.67685 -0.66667,-82.91152 v -82.24486 l 11.15264,-0.33847 c 6.13395,-0.18617 15.58395,-0.18381 21,0.005 l 9.84736,0.34393 v 63.29931 c 0,56.79819 0.16246,63.36164 1.58179,63.90629 0.86998,0.33385 11.66998,0.60699 24,0.60699 h 22.41821 v 19 19 h -44.33333 c -24.38334,0 -44.63334,-0.3 -45,-0.66667 z m 100.33333,-60.33333 v -61 h 17.83967 17.83967 l 0.66033,25.66221 c 0.83805,32.56871 0.83938,70.57255 0.003,85.08779 l -0.64825,11.25 h -17.84721 -17.84721 z m 73.84862,59.61214 c -6.44705,-1.73656 -9.44887,-3.94134 -12.08576,-8.87676 -2.19051,-4.09996 -2.27885,-5.32249 -2.76286,-38.23538 l -0.5,-34 -5.62666,-0.29622 -5.62666,-0.29623 -0.61233,-3.70377 c -0.79505,-4.80895 -0.81682,-31.56468 -0.0274,-33.62199 0.4476,-1.16634 1.99538,-1.58179 5.89305,-1.58179 3.89767,0 5.44545,-0.41545 5.89301,-1.58179 0.33385,-0.86998 0.60699,-8.51998 0.60699,-17 v -15.41821 h 18 18 v 17 17 h 8 8 v 19.5 19.5 h -8 -8 v 22 c 0,26.12303 -0.0468,26 9.89931,26 h 5.8993 l 0.71316,12.36455 c 0.39224,6.8005 0.39533,14.6755 0.007,17.5 l -0.70645,5.13545 -16.15616,-0.0675 c -9.5816,-0.04 -18.04898,-0.57734 -20.80754,-1.32037 z m 78.95195,-0.48551 c -11.54739,-3.80677 -22.85151,-14.15845 -29.07647,-26.62663 -7.42271,-14.86716 -9.75339,-34.95479 -5.86222,-50.52524 8.97254,-35.90356 39.05979,-54.15359 66.54291,-40.36296 11.89558,5.96904 21.97007,18.41174 27.05288,33.41222 2.42832,7.16648 2.94171,10.52304 3.32301,21.72598 l 0.45098,13.25 h -30.61583 -30.61583 v 6.35078 c 0,11.24546 3.20893,15.64922 11.40329,15.64922 5.00655,0 8.27029,-1.79234 10.03482,-5.51082 1.9357,-4.07919 3.87354,-4.48918 21.21827,-4.48918 11.26162,0 13.5028,0.25124 14.00903,1.57046 0.33422,0.87095 -1.12737,4.99093 -3.28138,9.24973 -5.15619,10.19452 -14.45809,19.67096 -23.78229,24.22854 -6.04358,2.95404 -8.02595,3.40804 -16,3.6643 -6.83753,0.21974 -10.51957,-0.17491 -14.80117,-1.5864 z m 24.19943,-76.26061 c 0,-3.04806 -2.55723,-9.04089 -4.72817,-11.08038 -3.12969,-2.94019 -10.09636,-3.1594 -13.1309,-0.41318 -2.46757,2.23312 -5.63071,10.02604 -4.68842,11.55069 0.93924,1.51973 22.54749,1.46498 22.54749,-0.0571 z m -333,18.13398 v -23 h 23 23 v 23 23 h -23 -23 z M 546.53855,128.2854 c -5.03837,-9.81379 -14.4003,-19.19794 -25.7612,-25.82234 l -8.50254,-4.957734 10.17076,-6.717251 c 12.07068,-7.97205 18.52392,-14.74787 24.15996,-25.36767 l 4.15139,-7.82232 2.7181,5.41135 c 6.8629,13.66306 14.21488,21.36818 28.49071,29.85918 l 7.79444,4.635981 -10.01531,5.940764 c -11.77327,6.98351 -17.46554,12.78732 -23.79072,24.25688 -2.475,4.48796 -4.725,8.17119 -5,8.18495 -0.275,0.0138 -2.26201,-3.40705 -4.41559,-7.60179 z"
       id="path1" />
    <path
       style="font-style:italic;font-size:53.3333px;line-height:1.1;font-family:'Comic Sans MS';-inkscape-font-specification:'Comic Sans MS, Italic';text-align:center;white-space:pre;fill:#ed1c24;stroke-linejoin:round;paint-order:stroke fill markers"
       d="m 107.25914,76.337159 -1.82291,11.249994 q 5.26041,-1.328124 7.78645,-1.328124 2.39583,0 5.91145,0.234374 3.54167,0.234375 3.93229,0.911458 0.41667,0.651041 0.41667,1.380208 0,1.406249 -0.88542,2.343748 -0.88541,0.9375 -2.16145,0.9375 -1.84896,0 -4.0625,-0.208333 -2.13542,-0.208334 -3.98437,-0.208334 -1.92709,0 -7.96875,1.484374 l -3.02083,17.916656 q -0.20833,1.17187 -1.09375,1.90104 -0.885416,0.75521 -1.953124,0.75521 -1.041666,0 -1.640624,-0.65104 -0.572916,-0.625 -0.572916,-1.5625 0,-0.65104 1.093749,-6.84896 l 3.098955,-17.708319 q 1.22396,-7.031245 1.64063,-10.130202 0.1302,-1.171874 0.28645,-2.031249 l 0.20834,-1.43229 q 0.20833,-1.171875 1.01562,-1.927083 0.83333,-0.781249 2.00521,-0.781249 0.85937,0 1.45833,0.46875 6.22396,-1.119791 10.49479,-1.119791 3.59374,0 7.52603,1.067707 3.95833,1.067708 3.95833,2.68229 0,0.989583 -0.88541,1.979166 -0.88542,0.989583 -2.10938,0.989583 -0.54687,0 -0.96354,-0.208334 -2.99479,-1.171874 -8.38541,-1.171874 -3.48958,0 -9.32291,1.015624 z m 36.87498,33.281231 q -5.625,2.70833 -8.02083,2.70833 -9.73958,0 -9.73958,-9.27083 0,-8.619783 5.44271,-13.958322 5.46875,-5.338538 11.97916,-5.338538 2.52604,0 5.20833,1.302083 2.70833,1.27604 2.70833,2.994789 0,1.067708 -0.70312,1.666666 -0.52084,1.015625 -1.48438,5.885413 -0.9375,4.843749 -0.9375,6.979159 0,2.63021 1.35417,7.23958 l 0.10417,0.41667 q -0.57292,2.42187 -2.89063,2.42187 -0.39062,0 -1.45833,-1.0677 -1.06771,-1.04167 -1.5625,-1.97917 z m 1.90104,-20.260405 q -1.64062,-0.963541 -2.60416,-0.963541 -4.34896,0 -8.125,3.932289 -3.75,3.906248 -3.75,9.739577 0,5.72916 4.94792,5.72916 3.8802,0 7.29166,-2.86458 0.41667,-10.911449 2.23958,-15.572905 z m 32.68227,6.380205 -0.91146,5.65104 q -0.88541,5.4427 -1.01562,7.34374 -0.15625,1.90104 -0.39063,2.47396 -0.20833,0.59896 -1.01562,1.19792 -0.80729,0.625 -1.79687,0.625 -1.97917,0 -2.13542,-2.44792 -3.51562,1.64062 -7.78645,1.64062 -3.61979,0 -5.59896,-1.58854 -1.97916,-1.61458 -1.97916,-4.55728 0,-3.88021 0.39062,-8.385417 0.39063,-4.505205 1.53646,-8.802078 1.14583,-4.322914 1.92708,-5.026038 0.80729,-0.703125 1.95312,-0.703125 1.04167,0 1.66667,0.572916 0.625,0.572917 0.625,1.458333 0,0.833333 -1.04167,4.374997 -0.85937,2.708332 -1.43229,6.796871 -0.54687,4.062501 -0.54687,7.031241 0,1.51042 0.15625,2.60417 1.51041,0.9375 3.15104,0.9375 3.48958,0 7.6302,-1.11979 l 1.48438,-10.338537 q 0.20833,-1.354166 1.0677,-5.911455 0.88542,-4.58333 1.74479,-5.416663 0.88542,-0.833333 2.1875,-0.833333 1.14584,0 1.74479,0.729166 0.59896,0.729166 0.39063,1.822916 z m 27.16144,-3.567707 -5.33853,4.583331 6.77083,11.093746 q 0.41666,0.67708 0.41666,1.35416 0,1.06771 -0.98958,1.95313 -0.98958,0.91145 -2.03125,0.91145 -0.625,0 -1.06771,-0.33854 -0.44271,-0.3125 -2.44791,-3.41145 -1.97917,-3.09896 -4.86979,-7.94271 l -5.91146,5.23438 -4.40103,3.74999 q -1.77084,1.53646 -2.68229,1.53646 -0.85938,0 -1.51042,-0.67708 -0.65104,-0.70313 -0.65104,-1.58854 0,-1.53646 3.54166,-4.29688 2.42188,-1.87499 2.76042,-2.18749 l 6.45833,-5.807293 -2.65625,-4.921872 q -1.64063,-3.046873 -2.89062,-4.296872 -0.70313,-0.755208 -0.70313,-1.614582 0,-1.067708 0.9375,-2.031249 0.9375,-0.963541 1.95312,-0.963541 1.48438,0 4.01042,4.010414 l 3.51562,6.249996 5.80729,-4.713539 q 3.72396,-3.020831 5.07812,-4.687497 1.01563,-1.223957 2.1875,-1.223957 0.91146,0 1.5625,0.677083 0.65104,0.677082 0.65104,1.562499 0,1.510415 -3.07291,4.218747 z"
       id="text1"
       transform="matrix(2.618442,0,0,4.7917045,-172.60797,-260.2353)"
       aria-label="Faux" />
  </g>
</svg>
